<svg width="20" height="39" viewBox="0 0 20 39" fill="none" xmlns="http://www.w3.org/2000/svg">
<path d="M12.8494 38.2142C12.6596 38.2218 12.5382 38.237 12.4168 38.237C9.82109 38.237 7.23299 38.2294 4.63731 38.2446C4.27301 38.2446 4.17434 38.1459 4.17434 37.7816C4.18193 31.7402 4.18193 25.6912 4.18193 19.6498C4.18193 19.4904 4.18193 19.331 4.18193 19.1261C2.77024 19.1261 1.39651 19.1261 0 19.1261C0 16.9706 0 14.8531 0 12.6748C0.144204 12.6748 0.280819 12.6748 0.409844 12.6748C1.5483 12.6748 2.68676 12.6672 3.82521 12.6824C4.11362 12.6824 4.18952 12.5989 4.18952 12.3181C4.17434 10.6256 4.17434 8.92552 4.18952 7.23301C4.19711 6.04902 4.38685 4.89538 4.93331 3.82523C5.71505 2.31488 6.95217 1.33581 8.51565 0.728631C9.79073 0.22771 11.1341 0.0455573 12.4851 0.0227881C14.6861 -0.00757072 16.8871 0.00760869 19.0881 1.89744e-05C19.293 1.89744e-05 19.46 -0.00757074 19.46 0.280838C19.4524 2.36801 19.4524 4.45518 19.4524 6.54235C19.4524 6.56512 19.4448 6.58789 19.4145 6.68655C19.2855 6.68655 19.1412 6.68655 18.997 6.68655C17.6309 6.68655 16.2647 6.67896 14.8986 6.68655C14.1093 6.68655 13.4717 7.00532 13.0695 7.69599C12.948 7.90091 12.8721 8.16655 12.8721 8.40942C12.8494 9.69967 12.8721 10.9899 12.857 12.2802C12.857 12.5838 12.948 12.6672 13.244 12.6672C15.1415 12.6521 17.0389 12.6597 18.9363 12.6597C19.0881 12.6597 19.2323 12.6597 19.4904 12.6597C19.2247 14.8303 18.9667 16.9554 18.701 19.1033C16.7277 19.1033 14.8075 19.1033 12.8494 19.1033C12.8494 25.4863 12.8494 31.8313 12.8494 38.2142Z" fill="white"/>
</svg>
