<svg width="35" height="34" viewBox="0 0 35 34" fill="none" xmlns="http://www.w3.org/2000/svg">
<path d="M34.9829 16.7749C34.9829 19.1275 34.9335 21.4869 34.997 23.8396C35.1028 28.004 32.3728 31.222 28.8949 32.6553C27.4982 33.2299 26.0308 33.5341 24.5141 33.5341C19.7665 33.5409 15.0118 33.6017 10.2642 33.5138C6.6876 33.4462 3.7459 32.013 1.63663 29.1871C0.529082 27.6998 0 26.0097 0 24.1776C0 19.3303 0 14.4898 0 9.64253C0 5.68765 2.01051 2.9226 5.58005 1.12431C7.13203 0.346855 8.81804 0.0155905 10.5746 0.00883004C15.1811 0.00883004 19.7947 -0.0182119 24.4013 0.022351C27.9779 0.049393 30.9619 1.36093 33.1629 4.11921C34.3903 5.6606 34.9829 7.43185 34.9829 9.37888C34.9829 11.8397 34.9829 14.3073 34.9829 16.7749ZM2.60308 16.7749C2.60308 19.256 2.60308 21.7303 2.60308 24.2114C2.60308 25.3201 2.87115 26.3612 3.47078 27.3009C5.04392 29.7685 7.42126 30.9719 10.37 31.0192C15.1035 31.0868 19.8441 31.0463 24.5847 31.0327C25.7487 31.0327 26.8774 30.8029 27.9285 30.3229C30.7926 29.0114 32.3939 26.9224 32.3798 23.7855C32.3516 18.9855 32.3728 14.1856 32.3728 9.38564C32.3728 8.02678 31.9707 6.78285 31.1312 5.68765C29.5087 3.58513 27.2654 2.55078 24.5847 2.52373C19.8582 2.46965 15.1318 2.50345 10.4053 2.51021C9.3965 2.51021 8.42299 2.70627 7.4777 3.04429C4.88167 3.97048 2.46905 6.31637 2.58192 9.77098C2.66657 12.1101 2.60308 14.4425 2.60308 16.7749Z" fill="white"/>
<path d="M17.5303 23.941C12.9801 23.941 9.31184 20.4661 9.30479 16.1394C9.29773 11.8803 12.9943 8.39186 17.5161 8.39186C22.0521 8.3851 25.7346 11.8667 25.7416 16.1597C25.7416 20.4458 22.0663 23.9342 17.5303 23.941ZM17.5303 21.4396C20.6272 21.4396 23.1385 19.0667 23.1315 16.1461C23.1244 13.2527 20.613 10.8865 17.5303 10.8865C14.4334 10.8865 11.9079 13.2459 11.9079 16.1597C11.9149 19.0802 14.4334 21.4464 17.5303 21.4396Z" fill="white"/>
<path d="M26.694 6.02563C27.6463 6.02563 28.4223 6.80309 28.4223 7.75632C28.4153 8.70955 27.6322 9.48025 26.6799 9.47349C25.7416 9.46673 24.9727 8.69603 24.9727 7.76308C24.9656 6.80985 25.7416 6.02563 26.694 6.02563Z" fill="white"/>
</svg>
