<svg width="34" height="24" viewBox="0 0 34 24" fill="none" xmlns="http://www.w3.org/2000/svg">
<path d="M17.2922 23.8164C13.5004 23.6969 9.89454 23.6039 6.28868 23.4645C5.51173 23.4313 4.7215 23.3118 3.96446 23.1325C2.54337 22.8004 1.56056 21.9438 1.05587 20.5426C0.650792 19.4137 0.504699 18.2516 0.398449 17.0696C0.166027 14.2938 0.166027 11.518 0.278917 8.74222C0.345324 7.17504 0.385167 5.59457 0.803527 4.07386C1.05587 3.1641 1.36134 2.27426 2.09845 1.61683C2.8754 0.919568 3.78517 0.501209 4.8211 0.454724C7.66329 0.315271 10.4988 0.142615 13.341 0.116053C17.166 0.0762088 20.9977 0.129334 24.8227 0.202381C26.4762 0.235584 28.143 0.321912 29.7832 0.534412C31.284 0.733631 32.4063 1.57035 33.0039 3.03129C33.4621 4.15355 33.6348 5.32894 33.7344 6.52426C33.9934 9.51918 34 12.5141 33.8539 15.509C33.7809 17.0297 33.7078 18.5571 33.2762 20.0379C32.7848 21.7379 31.7422 22.8602 30.0024 23.2453C29.325 23.3914 28.6211 23.4446 27.9305 23.4711C24.318 23.5973 20.7121 23.7102 17.2922 23.8164ZM13.6199 16.2661C16.6481 14.6989 19.643 13.145 22.6977 11.5578C19.6496 9.9641 16.6547 8.40355 13.6199 6.81644C13.6199 9.98402 13.6199 13.0985 13.6199 16.2661Z" fill="white"/>
</svg>
