<svg width="20" height="39" fill="none" xmlns="http://www.w3.org/2000/svg"><path d="M12.85 38.214c-.19.008-.312.023-.433.023-2.596 0-5.184-.008-7.78.008-.364 0-.463-.1-.463-.463.008-6.042.008-12.09.008-18.132v-.524H0v-6.451h.41c1.138 0 2.277-.008 3.415.007.289 0 .365-.083.365-.364a283.911 283.911 0 010-5.085c.007-1.184.197-2.338.743-3.408.782-1.51 2.02-2.49 3.583-3.096C9.79.228 11.134.046 12.486.023c2.2-.03 4.401-.015 6.602-.023.205 0 .372-.008.372.28-.008 2.088-.008 4.175-.008 6.262a.586.586 0 01-.038.145h-.417c-1.366 0-2.732-.008-4.098 0-.79 0-1.427.318-1.83 1.009a1.46 1.46 0 00-.197.713c-.023 1.29 0 2.58-.015 3.871 0 .304.091.387.387.387 1.898-.015 3.795-.007 5.692-.007h.554c-.265 2.17-.523 4.295-.789 6.443h-5.852v19.111z" fill="#fff"/></svg>