<svg width="35" height="34" fill="none" xmlns="http://www.w3.org/2000/svg"><path d="M34.983 16.775c0 2.353-.05 4.712.014 7.065.106 4.164-2.624 7.382-6.102 8.815a11.447 11.447 0 01-4.38.88c-4.748.006-9.503.067-14.25-.021-3.577-.068-6.52-1.501-8.628-4.327C.529 27.7 0 26.01 0 24.177V9.644c0-3.955 2.01-6.72 5.58-8.519C7.132.347 8.818.016 10.575.01c4.606 0 9.22-.027 13.826.013 3.577.027 6.56 1.339 8.762 4.097 1.227 1.542 1.82 3.313 1.82 5.26v7.396zm-32.38 0v7.436c0 1.11.268 2.15.868 3.09 1.573 2.468 3.95 3.67 6.899 3.718 4.734.068 9.474.027 14.215.014a7.99 7.99 0 003.343-.71c2.865-1.312 4.466-3.4 4.452-6.538-.028-4.8-.007-9.6-.007-14.4 0-1.358-.402-2.602-1.242-3.697-1.622-2.103-3.866-3.137-6.546-3.164-4.727-.054-9.453-.02-14.18-.014-1.008 0-1.982.196-2.927.534-2.596.926-5.009 3.272-4.896 6.727.085 2.34.021 4.671.021 7.004z" fill="#fff"/><path d="M17.53 23.941c-4.55 0-8.218-3.475-8.225-7.802-.007-4.259 3.69-7.747 8.211-7.747 4.536-.007 8.219 3.475 8.226 7.768 0 4.286-3.676 7.774-8.212 7.781zm0-2.501c3.097 0 5.608-2.373 5.601-5.294-.007-2.893-2.518-5.26-5.6-5.26-3.098 0-5.623 2.36-5.623 5.274.007 2.92 2.525 5.286 5.622 5.28zm9.164-15.414c.952 0 1.728.777 1.728 1.73a1.724 1.724 0 11-1.728-1.73z" fill="#fff"/></svg>