<svg width="34" height="24" fill="none" xmlns="http://www.w3.org/2000/svg"><path d="M17.292 23.816c-3.792-.12-7.397-.212-11.003-.351a12.49 12.49 0 01-2.325-.332c-1.42-.333-2.403-1.19-2.908-2.59-.405-1.13-.551-2.291-.658-3.473-.232-2.776-.232-5.552-.12-8.328.067-1.567.107-3.147.526-4.668.252-.91.557-1.8 1.294-2.457C2.875.92 3.785.5 4.821.455 7.663.315 10.5.143 13.341.116c3.825-.04 7.657.013 11.482.086 1.653.034 3.32.12 4.96.332 1.501.2 2.623 1.036 3.22 2.497.46 1.123.632 2.298.731 3.493.26 2.995.266 5.99.12 8.985-.073 1.52-.146 3.048-.578 4.529-.491 1.7-1.534 2.822-3.274 3.207-.677.146-1.38.2-2.072.226-3.612.126-7.218.24-10.638.345zm-3.672-7.55a6277.31 6277.31 0 009.078-4.708c-3.048-1.594-6.043-3.154-9.078-4.742v9.45z" fill="#fff"/></svg>